<svg xmlns="http://www.w3.org/2000/svg" version="1.1" xmlns:xlink="http://www.w3.org/1999/xlink" viewBox="0 0 7.740022851562499 7.7400228515625"><g transform="matrix(0.8571428571428572,0,0,0.8571428571428572,2.048574693080357,3.552868568638393)"><g transform="matrix(1,0,0,1,0,0)"><g clip-path="url(#SvgjsClipPath124860)"><path d=" M 0.005717550223214296 -2.855009521484375 L 4.244301492745537 -2.855009521484375 C 4.854972488827054 -2.855009521484375 5.35001904296875 -2.3599629673426787 5.35001904296875 -1.7492919712611608 L 5.35001904296875 2.4892919712611614 C 5.35001904296875 3.099962967342679 4.854972488827054 3.5950095214843754 4.244301492745537 3.5950095214843754 L 0.005717550223214296 3.5950095214843754 C -0.6049534458583037 3.5950095214843754 -1.1 3.099962967342679 -1.1 2.4892919712611614 L -1.1 -1.7492919712611608 C -1.1 -2.3599629673426787 -0.6049534458583037 -2.855009521484375 0.005717550223214296 -2.855009521484375 Z" fill="#205c5c" transform="matrix(1,0,0,1,0,0)" fill-rule="nonzero"></path></g></g><g transform="matrix(1,0,0,1,0,0)"><path d=" M 0.5835 0.3865 Q 0.554 0.439 0.4945 0.4705 Q 0.435 0.502 0.34900000000000003 0.502 L 0.252 0.502 L 0.252 0.74 L 0.056 0.74 L 0.056 0.03500000000000003 L 0.34900000000000003 0.03500000000000003 Q 0.434 0.03500000000000003 0.4935 0.06499999999999995 Q 0.553 0.09499999999999997 0.583 0.14800000000000002 Q 0.613 0.20099999999999996 0.613 0.26999999999999996 Q 0.613 0.33399999999999996 0.5835 0.3865 M 0.41300000000000003 0.26999999999999996 Q 0.41300000000000003 0.19299999999999995 0.33 0.19299999999999995 L 0.252 0.19299999999999995 L 0.252 0.346 L 0.33 0.346 Q 0.41300000000000003 0.346 0.41300000000000003 0.26999999999999996 M 0.886986328125 0 L 0.886986328125 0.74 L 0.690986328125 0.74 L 0.690986328125 0 L 0.886986328125 0 M 0.9974697265625 0.307 Q 1.0289697265625 0.242 1.0834697265625 0.20699999999999996 Q 1.1379697265625 0.17199999999999993 1.2049697265625001 0.17199999999999993 Q 1.2629697265625 0.17199999999999993 1.3049697265625 0.19499999999999995 Q 1.3469697265625 0.21799999999999997 1.3699697265625 0.257 L 1.3699697265625 0.17899999999999994 L 1.5659697265624999 0.17899999999999994 L 1.5659697265624999 0.74 L 1.3699697265625 0.74 L 1.3699697265625 0.662 Q 1.3469697265625 0.701 1.3044697265625 0.724 Q 1.2619697265625 0.747 1.2049697265625001 0.747 Q 1.1379697265625 0.747 1.0834697265625 0.712 Q 1.0289697265625 0.677 0.9974697265625 0.6114999999999999 Q 0.9659697265625 0.546 0.9659697265625 0.45899999999999996 Q 0.9659697265625 0.372 0.9974697265625 0.307 M 1.3404697265625 0.374 Q 1.3109697265625 0.34299999999999997 1.2679697265625 0.34299999999999997 Q 1.2239697265625 0.34299999999999997 1.1949697265625 0.3735 Q 1.1659697265625 0.40399999999999997 1.1659697265625 0.45899999999999996 Q 1.1659697265625 0.513 1.1949697265625 0.5445 Q 1.2239697265625 0.576 1.2679697265625 0.576 Q 1.3109697265625 0.576 1.3404697265625 0.5449999999999999 Q 1.3699697265625 0.514 1.3699697265625 0.45899999999999996 Q 1.3699697265625 0.40499999999999997 1.3404697265625 0.374 M 1.68096240234375 0.307 Q 1.71696240234375 0.242 1.78146240234375 0.20699999999999996 Q 1.84596240234375 0.17199999999999993 1.92896240234375 0.17199999999999993 Q 2.03596240234375 0.17199999999999993 2.10896240234375 0.23049999999999993 Q 2.18196240234375 0.289 2.2029624023437497 0.39399999999999996 L 1.99496240234375 0.39399999999999996 Q 1.9769624023437498 0.33899999999999997 1.92496240234375 0.33899999999999997 Q 1.8879624023437498 0.33899999999999997 1.86646240234375 0.3695 Q 1.8449624023437499 0.39999999999999997 1.8449624023437499 0.45899999999999996 Q 1.8449624023437499 0.518 1.86646240234375 0.5489999999999999 Q 1.8879624023437498 0.58 1.92496240234375 0.58 Q 1.9779624023437499 0.58 1.99496240234375 0.525 L 2.2029624023437497 0.525 Q 2.18196240234375 0.629 2.10896240234375 0.688 Q 2.03596240234375 0.747 1.92896240234375 0.747 Q 1.84596240234375 0.747 1.78146240234375 0.712 Q 1.71696240234375 0.677 1.68096240234375 0.612 Q 1.64496240234375 0.5469999999999999 1.64496240234375 0.45899999999999996 Q 1.64496240234375 0.372 1.68096240234375 0.307 M 2.81595703125 0.499 L 2.44495703125 0.499 Q 2.44795703125 0.5449999999999999 2.47045703125 0.5675 Q 2.49295703125 0.59 2.52795703125 0.59 Q 2.57695703125 0.59 2.59795703125 0.546 L 2.80695703125 0.546 Q 2.79395703125 0.604 2.75645703125 0.6495 Q 2.71895703125 0.695 2.66195703125 0.721 Q 2.60495703125 0.747 2.53595703125 0.747 Q 2.45295703125 0.747 2.38845703125 0.712 Q 2.32395703125 0.677 2.2874570312499998 0.612 Q 2.25095703125 0.5469999999999999 2.25095703125 0.45899999999999996 Q 2.25095703125 0.371 2.28695703125 0.3065 Q 2.32295703125 0.242 2.38745703125 0.20699999999999996 Q 2.45195703125 0.17199999999999993 2.53595703125 0.17199999999999993 Q 2.61895703125 0.17199999999999993 2.68295703125 0.20599999999999996 Q 2.74695703125 0.24 2.78295703125 0.3035 Q 2.81895703125 0.367 2.81895703125 0.45299999999999996 Q 2.81895703125 0.476 2.81595703125 0.499 M 2.61895703125 0.40399999999999997 Q 2.61895703125 0.368 2.59495703125 0.3475 Q 2.57095703125 0.32699999999999996 2.53495703125 0.32699999999999996 Q 2.49895703125 0.32699999999999996 2.47595703125 0.3465 Q 2.45295703125 0.366 2.44595703125 0.40399999999999997 L 2.61895703125 0.40399999999999997 M 3.17398486328125 0.20199999999999996 Q 3.22098486328125 0.17399999999999993 3.27498486328125 0.17399999999999993 L 3.27498486328125 0.383 L 3.21998486328125 0.383 Q 3.15598486328125 0.383 3.12498486328125 0.408 Q 3.09398486328125 0.433 3.09398486328125 0.495 L 3.09398486328125 0.74 L 2.89798486328125 0.74 L 2.89798486328125 0.17899999999999994 L 3.09398486328125 0.17899999999999994 L 3.09398486328125 0.27799999999999997 Q 3.1269848632812502 0.22999999999999998 3.17398486328125 0.20199999999999996 M 3.5400063476562504 0 L 3.5400063476562504 0.74 L 3.3440063476562503 0.74 L 3.3440063476562503 0 L 3.5400063476562504 0 M 4.2549897460937505 0.17899999999999994 L 3.89898974609375 1.0070000000000001 L 3.6859897460937505 1.0070000000000001 L 3.8199897460937504 0.716 L 3.5899897460937504 0.17899999999999994 L 3.8079897460937504 0.17899999999999994 L 3.9259897460937503 0.497 L 4.039989746093751 0.17899999999999994 L 4.2549897460937505 0.17899999999999994" fill="#ffffff" fill-rule="nonzero"></path></g><g transform="matrix(1,0,0,1,0,0)"></g></g><defs><clipPath id="SvgjsClipPath124860"><path d=" M -1.1 -2.855009521484375 h 6.4500190429687505 v 6.4500190429687505 h -6.4500190429687505 Z"></path></clipPath></defs></svg>